<?xml version="1.0" encoding="utf-8"?>
<!-- Generator: Adobe Illustrator 24.3.0, SVG Export Plug-In . SVG Version: 6.00 Build 0)  -->
<svg version="1.1" id="Layer_1" xmlns="http://www.w3.org/2000/svg" xmlns:xlink="http://www.w3.org/1999/xlink" x="0px" y="0px"
	 viewBox="0 0 896 341.9" style="enable-background:new 0 0 896 341.9;" xml:space="preserve">
<style type="text/css">
	.st0{fill:#0E0E0E;}
</style>
<path class="st0" d="M89.9,248.9c-12.5,0.1-24.8-1.9-36.7-5.7V207c0,0,22.8,5.5,31.2,5.5c10.7,0,17.4-3,17.4-14.4
	c0-6.4-5.2-11.6-12.2-17.1l-11.9-9.7c-11.4-9.2-25.5-21.8-25.5-48.6c0-41.4,31.2-52.3,56.5-52.3c21.3,0,35.9,5.7,35.9,5.7v35.2
	c0,0-17.6-5.2-31-5.2c-9.2,0-14.9,4.5-14.9,13.9c0,8.9,6.4,13.4,14.4,19.3l11.7,8.7c12.4,9.2,24,22.1,24,48.6
	C148.9,242.2,118,248.9,89.9,248.9z"/>
<path class="st0" d="M226.5,246.5l-7.4-9.2c0,0-7.7,11.6-24.8,11.6c-13.6,0-36.7-3.5-36.7-42.4c0-42.2,33.7-45.6,51.8-45.6h8.9v-5.2
	c0-5.9-2.5-8.2-11.2-8.2c-13.1,0-35.9,6.4-35.9,6.4v-33.7c15.6-4.9,31.9-7.5,48.3-7.7c26.8,0,45.9,7.7,45.9,40.2v93.7L226.5,246.5z
	 M218.4,183.2l-4,0.2c-8.9,0.5-11.4,4.7-11.4,20.3c0,11.6,2.7,16.1,9.2,16.1c2.1-0.1,4.2-0.6,6.2-1.5L218.4,183.2z"/>
<path class="st0" d="M347.3,96c-6.4,0-8.7,4.7-8.7,10.7v8.4h24.8l-6.2,30h-18.6v101.4h-47.1V145.1h-17.3v-30h17.4v-11.2
	c0-36.4,27-40.9,45.6-40.9c11.8,0.1,23.6,1.8,35,4.9v31C372.1,99,356.9,96,347.3,96z"/>
<path class="st0" d="M407.8,196.4c0,14.1,6.9,16.9,18.6,16.9c14.1,0,38.4-5.2,38.4-5.2v34.2c0,0-18.8,6.7-38.4,6.7
	c-29.5,0-65.5-4.7-65.5-67.7c0-55.5,28.3-68.7,58-68.7c30.5,0,52.6,15.6,52.6,68.2v15.6H407.8z M418.9,140.6
	c-11.9,0-10.7,14.6-11.1,30.2h19.8C427.6,155.5,428.3,140.6,418.9,140.6L418.9,140.6z"/>
<path class="st0" d="M548.8,248.9c-7.2,0-16.6-2.7-16.6-2.7v47.3h-47.1V115.1h38.2l6.9,8.2c7.7-6.9,17.7-10.7,28-10.7
	c19.3,0,42.2,5.4,42.2,67.4C600.4,248,566.2,248.9,548.8,248.9z M543.4,147.3c-4.2,0-11.2,4-11.2,4v63.5c2.6,0.7,5.2,1.1,7.9,1.2
	c8.2,0,13.1-6.9,13.1-35.9C553.3,150.5,551.1,147.3,543.4,147.3z"/>
<path class="st0" d="M678,246.5l-7.4-9.2c0,0-7.7,11.6-24.8,11.6c-13.6,0-36.7-3.5-36.7-42.4c0-42.2,33.7-45.6,51.8-45.6h8.9v-5.2
	c0-5.9-2.5-8.2-11.2-8.2c-13.1,0-36,6.4-36,6.4v-33.7c15.6-4.9,31.9-7.5,48.3-7.7c26.8,0,45.9,7.7,45.9,40.2v93.7L678,246.5z
	 M669.8,183.2l-4,0.2c-8.9,0.5-11.4,4.7-11.4,20.3c0,11.6,2.7,16.1,9.2,16.1c2.1-0.1,4.2-0.6,6.2-1.5L669.8,183.2z"/>
<path class="st0" d="M807.4,255.4c-8.4,31.5-23.1,40.6-45.9,40.6c-16.6,0-35.7-4.5-35.7-4.5v-35c0,0,19.3,4.2,28.3,4.2
	c6.2,0,9.7-2.7,11.2-9.4l1-4.5l-46.9-131.8h51.3l14.6,89.5l9.9-89.5h49.3L807.4,255.4z"/>
</svg>
