<svg id="Layer_1" data-name="Layer 1" xmlns="http://www.w3.org/2000/svg" viewBox="0 0 895.95 341.89"><defs><style>.cls-1{fill:#19398c;}</style></defs><title>Safepay-logo</title><path class="cls-1" d="M89.94,248.94a117.81,117.81,0,0,1-36.69-5.7V207s22.8,5.46,31.23,5.46c10.66,0,17.36-3,17.36-14.38,0-6.45-5.21-11.65-12.15-17.11l-11.9-9.67c-11.4-9.17-25.53-21.81-25.53-48.59,0-41.4,31.23-52.31,56.52-52.31,21.32,0,35.95,5.71,35.95,5.71v35.2s-17.61-5.21-31-5.21c-9.18,0-14.88,4.47-14.88,13.89,0,8.92,6.45,13.38,14.38,19.33L124.89,148c12.4,9.17,24,22.06,24,48.59C148.94,242.25,118,248.94,89.94,248.94Z"/><path class="cls-1" d="M226.54,246.46l-7.44-9.17s-7.68,11.65-24.79,11.65c-13.63,0-36.69-3.47-36.69-42.39,0-42.15,33.72-45.62,51.81-45.62h8.93v-5.2c0-5.95-2.48-8.19-11.16-8.19-13.14,0-35.95,6.45-35.95,6.45V120.27a166.34,166.34,0,0,1,48.35-7.68c26.77,0,45.86,7.68,45.86,40.16v93.71Zm-8.18-63.22-4,.25c-8.92.5-11.4,4.71-11.4,20.33,0,11.65,2.72,16.11,9.17,16.11a17.53,17.53,0,0,0,6.2-1.48Z"/><path class="cls-1" d="M347.27,96c-6.44,0-8.67,4.71-8.67,10.66v8.43h24.79l-6.2,30H338.6V246.46H291.49V145.07H274.14v-30h17.35V103.91c0-36.44,27-40.9,45.62-40.9a133.32,133.32,0,0,1,35,4.95V99S356.94,96,347.27,96Z"/><path class="cls-1" d="M407.77,196.38c0,14.13,6.94,16.86,18.59,16.86,14.13,0,38.42-5.21,38.42-5.21v34.22s-18.84,6.69-38.42,6.69c-29.5,0-65.45-4.71-65.45-67.68,0-55.53,28.26-68.67,58-68.67,30.49,0,52.56,15.62,52.56,68.17v15.62Zm11.15-55.78c-11.9,0-10.66,14.63-11.15,30.25H427.6C427.6,155.48,428.34,140.6,418.92,140.6Z"/><path class="cls-1" d="M548.83,248.94c-7.19,0-16.61-2.73-16.61-2.73v47.35h-47.1V115.07H523.3l6.94,8.18a42.12,42.12,0,0,1,28-10.66c19.34,0,42.15,5.45,42.15,67.43C600.4,248,566.18,248.94,548.83,248.94ZM543.38,147.3c-4.22,0-11.16,4-11.16,4v63.47a36.07,36.07,0,0,0,7.93,1.24c8.19,0,13.14-6.94,13.14-35.95C553.29,150.52,551.06,147.3,543.38,147.3Z"/><path class="cls-1" d="M678,246.46l-7.43-9.17s-7.69,11.65-24.79,11.65c-13.64,0-36.69-3.47-36.69-42.39,0-42.15,33.71-45.62,51.81-45.62h8.92v-5.2c0-5.95-2.48-8.19-11.15-8.19-13.14,0-35.95,6.45-35.95,6.45V120.27a166.23,166.23,0,0,1,48.34-7.68c26.78,0,45.87,7.68,45.87,40.16v93.71Zm-8.18-63.22-4,.25c-8.93.5-11.41,4.71-11.41,20.33,0,11.65,2.73,16.11,9.18,16.11a17.45,17.45,0,0,0,6.19-1.48Z"/><path class="cls-1" d="M807.41,255.38C799,286.87,784.35,296,761.54,296c-16.61,0-35.7-4.46-35.7-4.46v-35s19.34,4.22,28.27,4.22c6.19,0,9.66-2.73,11.15-9.42l1-4.46L719.4,115.07h51.32l14.62,89.49,9.92-89.49h49.33Z"/></svg>