<svg id="Layer_1" data-name="Layer 1" xmlns="http://www.w3.org/2000/svg" viewBox="0 0 504.05 504.05"><defs><style>.cls-1{fill:#19398c;}.cls-2{fill:#f7f7f7;}</style></defs><title>Safepay-logo</title><circle class="cls-1" cx="253.61" cy="252.03" r="252.03"/><path class="cls-2" d="M229.68,437.84c-44.17,0-76.91-11.95-76.91-11.95V350s47.81,11.43,65.48,11.43c22.34,0,36.38-6.24,36.38-30.14,0-13.51-10.92-24.43-25.47-35.86l-24.94-20.26c-23.91-19.23-53.53-45.73-53.53-101.86,0-86.78,65.48-109.64,118.49-109.64,44.69,0,75.34,12,75.34,12v73.79s-36.89-10.91-64.95-10.91c-19.23,0-31.18,9.35-31.18,29.1,0,18.7,13.51,28.06,30.14,40.53L303,226.34c26,19.23,50.41,46.25,50.41,101.85C353.36,423.81,288.4,437.84,229.68,437.84Z"/></svg>